<?xml version="1.0" standalone="no"?>
<!DOCTYPE svg PUBLIC "-//W3C//DTD SVG 20010904//EN"
 "http://www.w3.org/TR/2001/REC-SVG-20010904/DTD/svg10.dtd">
<svg version="1.0" xmlns="http://www.w3.org/2000/svg"
 width="200.000000pt" height="200.000000pt" viewBox="0 0 200.000000 200.000000"
 preserveAspectRatio="xMidYMid meet">
<metadata>
Created by potrace 1.14, written by Peter Selinger 2001-2017
</metadata>
<g transform="translate(0.000000,200.000000) scale(0.100000,-0.100000)"
fill="#000000" stroke="none">
<path d="M0 1000 l0 -1000 1000 0 1000 0 0 1000 0 1000 -1000 0 -1000 0 0
-1000z m793 395 c132 -34 197 -118 197 -253 0 -53 -6 -79 -26 -120 -49 -98
-120 -133 -284 -141 l-115 -6 -1 -35 c-1 -19 -2 -86 -3 -147 l-1 -113 -100 0
-100 0 0 415 0 415 188 0 c135 0 204 -4 245 -15z m827 -292 c0 -171 -4 -324
-10 -343 -20 -71 -64 -126 -127 -156 -50 -25 -70 -29 -138 -28 -97 0 -168 27
-219 85 -35 38 -66 118 -66 171 l0 28 100 0 c93 0 100 -1 100 -20 0 -89 121
-119 150 -37 6 18 10 143 10 318 l0 289 100 0 100 0 0 -307z"/>
<path d="M568 1244 c-5 -4 -8 -52 -8 -106 l0 -98 75 0 c96 0 130 16 146 69 14
47 3 87 -32 114 -27 19 -167 36 -181 21z"/>
</g>
</svg>
